{
    "asset": {
        "version": "1.0",
        "generator": "Open Asset Import Library (assimp v4.1.0)"
    },
    "accessors": {
        "Arcade_machine_mesh_accessor": {
            "bufferView": "Arcade_machine_mesh_view",
            "byteOffset": 0,
            "byteStride": 0,
            "componentType": 5126,
            "count": 13230,
            "type": "VEC3",
            "max": [
                28.159700393676759,
                165.2187957763672,
                32.18410110473633
            ],
            "min": [
                -28.159700393676759,
                0.004100000020116568,
                -32.18410110473633
            ]
        },
        "Arcade_machine_mesh_accessor_0": {
            "bufferView": "Arcade_machine_mesh_view_0",
            "byteOffset": 0,
            "byteStride": 0,
            "componentType": 5126,
            "count": 13230,
            "type": "VEC3",
            "max": [
                1.0,
                1.0,
                1.0
            ],
            "min": [
                -1.0,
                -1.0,
                -1.0
            ]
        },
        "Arcade_machine_mesh_accessor_1": {
            "bufferView": "Arcade_machine_mesh_view_1",
            "byteOffset": 0,
            "byteStride": 0,
            "componentType": 5126,
            "count": 13230,
            "type": "VEC2",
            "max": [
                18.571800231933595,
                74.99369812011719
            ],
            "min": [
                -32.3568000793457,
                -55.72549819946289
            ]
        },
        "Arcade_machine_mesh_accessor_2": {
            "bufferView": "Arcade_machine_mesh_view_2",
            "byteOffset": 0,
            "byteStride": 0,
            "componentType": 5123,
            "count": 65988,
            "type": "SCALAR",
            "max": [
                13229.0
            ],
            "min": [
                0.0
            ]
        }
    },
    "buffers": {
        "../../download/di30r2u33g1s/di30r2u33g1s": {
            "byteLength": 555336,
            "type": "arraybuffer",
            "uri": "../../download/di30r2u33g1s/di30r2u33g1s.bin"
        }
    },
    "bufferViews": {
        "Arcade_machine_mesh_view": {
            "buffer": "../../download/di30r2u33g1s/di30r2u33g1s",
            "byteOffset": 0,
            "byteLength": 158760,
            "target": 34962
        },
        "Arcade_machine_mesh_view_0": {
            "buffer": "../../download/di30r2u33g1s/di30r2u33g1s",
            "byteOffset": 158760,
            "byteLength": 158760,
            "target": 34962
        },
        "Arcade_machine_mesh_view_1": {
            "buffer": "../../download/di30r2u33g1s/di30r2u33g1s",
            "byteOffset": 317520,
            "byteLength": 105840,
            "target": 34962
        },
        "Arcade_machine_mesh_view_2": {
            "buffer": "../../download/di30r2u33g1s/di30r2u33g1s",
            "byteOffset": 423360,
            "byteLength": 131976,
            "target": 34963
        }
    },
    "materials": {
        "DefaultMaterial": {
            "values": {
                "ambient": [
                    0.0,
                    0.0,
                    0.0,
                    1.0
                ],
                "diffuse": [
                    0.6000000238418579,
                    0.6000000238418579,
                    0.6000000238418579,
                    1.0
                ],
                "specular": [
                    0.0,
                    0.0,
                    0.0,
                    1.0
                ],
                "emission": [
                    0.0,
                    0.0,
                    0.0,
                    1.0
                ],
                "shininess": 0.0
            }
        },
        "wire_154185229": {
            "values": {
                "ambient": [
                    0.0,
                    0.0,
                    0.0,
                    1.0
                ],
                "diffuse": [
                    0.6000000238418579,
                    0.6000000238418579,
                    0.6000000238418579,
                    1.0
                ],
                "specular": [
                    0.0,
                    0.0,
                    0.0,
                    1.0
                ],
                "emission": [
                    0.0,
                    0.0,
                    0.0,
                    1.0
                ],
                "shininess": 0.0
            }
        }
    },
    "meshes": {
        "Arcade_machine_mesh": {
            "name": "",
            "primitives": [
                {
                    "mode": 4,
                    "material": "wire_154185229",
                    "indices": "Arcade_machine_mesh_accessor_2",
                    "attributes": {
                        "POSITION": "Arcade_machine_mesh_accessor",
                        "NORMAL": "Arcade_machine_mesh_accessor_0",
                        "TEXCOORD_0": "Arcade_machine_mesh_accessor_1"
                    }
                }
            ]
        }
    },
    "nodes": {
        "di30r2u33g1s.obj": {
            "children": [
                "Arcade_machine"
            ]
        },
        "Arcade_machine": {
            "meshes": [
                "Arcade_machine_mesh"
            ]
        }
    },
    "scenes": {
        "defaultScene": {
            "nodes": [
                "di30r2u33g1s.obj"
            ]
        }
    },
    "scene": "defaultScene"
}