{
    "asset": {
        "version": "1.0",
        "generator": "Open Asset Import Library (assimp v4.1.0)"
    },
    "accessors": {
        "Machine_Cube_mesh_accessor": {
            "bufferView": "Machine_Cube_mesh_view",
            "byteOffset": 0,
            "byteStride": 0,
            "componentType": 5126,
            "count": 112,
            "type": "VEC3",
            "max": [
                5.000001907348633,
                10.0,
                5.000000953674316
            ],
            "min": [
                -5.000001907348633,
                -10.0,
                -5.000001907348633
            ]
        },
        "Machine_Cube_mesh_accessor_0": {
            "bufferView": "Machine_Cube_mesh_view_0",
            "byteOffset": 0,
            "byteStride": 0,
            "componentType": 5126,
            "count": 112,
            "type": "VEC3",
            "max": [
                1.0,
                1.0,
                1.0
            ],
            "min": [
                -1.0,
                -1.0,
                -1.0
            ]
        },
        "Machine_Cube_mesh_accessor_1": {
            "bufferView": "Machine_Cube_mesh_view_1",
            "byteOffset": 0,
            "byteStride": 0,
            "componentType": 5123,
            "count": 324,
            "type": "SCALAR",
            "max": [
                111.0
            ],
            "min": [
                0.0
            ]
        },
        "Button_Torus_mesh_accessor": {
            "bufferView": "Button_Torus_mesh_view",
            "byteOffset": 0,
            "byteStride": 0,
            "componentType": 5126,
            "count": 4608,
            "type": "VEC3",
            "max": [
                0.8125,
                1.1324999332427979,
                4.3125
            ],
            "min": [
                -0.8125,
                1.0075000524520875,
                3.6875
            ]
        },
        "Button_Torus_mesh_accessor_0": {
            "bufferView": "Button_Torus_mesh_view_0",
            "byteOffset": 0,
            "byteStride": 0,
            "componentType": 5126,
            "count": 4608,
            "type": "VEC3",
            "max": [
                0.9639999866485596,
                0.9657999873161316,
                0.9639999866485596
            ],
            "min": [
                -0.9639999866485596,
                -0.9657999873161316,
                -0.9639999866485596
            ]
        },
        "Button_Torus_mesh_accessor_1": {
            "bufferView": "Button_Torus_mesh_view_1",
            "byteOffset": 0,
            "byteStride": 0,
            "componentType": 5123,
            "count": 6912,
            "type": "SCALAR",
            "max": [
                4607.0
            ],
            "min": [
                0.0
            ]
        },
        "Button.001_Cylinder.002_mesh_accessor": {
            "bufferView": "Button.001_Cylinder.002_mesh_view",
            "byteOffset": 0,
            "byteStride": 0,
            "componentType": 5126,
            "count": 432,
            "type": "VEC3",
            "max": [
                0.699999988079071,
                1.1436820030212403,
                4.199999809265137
            ],
            "min": [
                -0.699999988079071,
                1.0836820602416993,
                3.799999952316284
            ]
        },
        "Button.001_Cylinder.002_mesh_accessor_0": {
            "bufferView": "Button.001_Cylinder.002_mesh_view_0",
            "byteOffset": 0,
            "byteStride": 0,
            "componentType": 5126,
            "count": 432,
            "type": "VEC3",
            "max": [
                0.995199978351593,
                1.0,
                0.995199978351593
            ],
            "min": [
                -0.995199978351593,
                -1.0,
                -0.995199978351593
            ]
        },
        "Button.001_Cylinder.002_mesh_accessor_1": {
            "bufferView": "Button.001_Cylinder.002_mesh_view_1",
            "byteOffset": 0,
            "byteStride": 0,
            "componentType": 5123,
            "count": 1488,
            "type": "SCALAR",
            "max": [
                431.0
            ],
            "min": [
                0.0
            ]
        },
        "ControlStick_Cylinder.001_mesh_accessor": {
            "bufferView": "ControlStick_Cylinder.001_mesh_view",
            "byteOffset": 0,
            "byteStride": 0,
            "componentType": 5126,
            "count": 384,
            "type": "VEC3",
            "max": [
                2.0999999046325685,
                1.8772820234298707,
                2.0999999046325685
            ],
            "min": [
                -2.0999999046325685,
                1.3772820234298707,
                1.899999976158142
            ]
        },
        "ControlStick_Cylinder.001_mesh_accessor_0": {
            "bufferView": "ControlStick_Cylinder.001_mesh_view_0",
            "byteOffset": 0,
            "byteStride": 0,
            "componentType": 5126,
            "count": 384,
            "type": "VEC3",
            "max": [
                0.995199978351593,
                1.0,
                0.995199978351593
            ],
            "min": [
                -0.995199978351593,
                -1.0,
                -0.995199978351593
            ]
        },
        "ControlStick_Cylinder.001_mesh_accessor_1": {
            "bufferView": "ControlStick_Cylinder.001_mesh_view_1",
            "byteOffset": 0,
            "byteStride": 0,
            "componentType": 5123,
            "count": 744,
            "type": "SCALAR",
            "max": [
                383.0
            ],
            "min": [
                0.0
            ]
        },
        "Sphere_Sphere.001_mesh_accessor": {
            "bufferView": "Sphere_Sphere.001_mesh_view",
            "byteOffset": 0,
            "byteStride": 0,
            "componentType": 5126,
            "count": 3968,
            "type": "VEC3",
            "max": [
                2.25,
                1.4500000476837159,
                2.25
            ],
            "min": [
                -2.25,
                0.949999988079071,
                1.75
            ]
        },
        "Sphere_Sphere.001_mesh_accessor_0": {
            "bufferView": "Sphere_Sphere.001_mesh_view_0",
            "byteOffset": 0,
            "byteStride": 0,
            "componentType": 5126,
            "count": 3968,
            "type": "VEC3",
            "max": [
                0.9904000163078308,
                0.9951000213623047,
                0.9904000163078308
            ],
            "min": [
                -0.9904000163078308,
                -0.9951000213623047,
                -0.9904000163078308
            ]
        },
        "Sphere_Sphere.001_mesh_accessor_1": {
            "bufferView": "Sphere_Sphere.001_mesh_view_1",
            "byteOffset": 0,
            "byteStride": 0,
            "componentType": 5123,
            "count": 5760,
            "type": "SCALAR",
            "max": [
                3967.0
            ],
            "min": [
                0.0
            ]
        },
        "Sphere.001_Sphere.002_mesh_accessor": {
            "bufferView": "Sphere.001_Sphere.002_mesh_view",
            "byteOffset": 0,
            "byteStride": 0,
            "componentType": 5126,
            "count": 3968,
            "type": "VEC3",
            "max": [
                2.4000000953674318,
                2.2209129333496095,
                2.4000000953674318
            ],
            "min": [
                -2.4000000953674318,
                1.8209130764007569,
                1.600000023841858
            ]
        },
        "Sphere.001_Sphere.002_mesh_accessor_0": {
            "bufferView": "Sphere.001_Sphere.002_mesh_view_0",
            "byteOffset": 0,
            "byteStride": 0,
            "componentType": 5126,
            "count": 3968,
            "type": "VEC3",
            "max": [
                0.9765999913215637,
                0.9987999796867371,
                0.9765999913215637
            ],
            "min": [
                -0.9765999913215637,
                -0.9987999796867371,
                -0.9765999913215637
            ]
        },
        "Sphere.001_Sphere.002_mesh_accessor_1": {
            "bufferView": "Sphere.001_Sphere.002_mesh_view_1",
            "byteOffset": 0,
            "byteStride": 0,
            "componentType": 5123,
            "count": 5760,
            "type": "SCALAR",
            "max": [
                3967.0
            ],
            "min": [
                0.0
            ]
        }
    },
    "buffers": {
        "../../download/q0ficp4b2bob/q0ficp4b2bob": {
            "byteLength": 365304,
            "type": "arraybuffer",
            "uri": "../../download/q0ficp4b2bob/q0ficp4b2bob.bin"
        }
    },
    "bufferViews": {
        "Machine_Cube_mesh_view": {
            "buffer": "../../download/q0ficp4b2bob/q0ficp4b2bob",
            "byteOffset": 0,
            "byteLength": 1344,
            "target": 34962
        },
        "Machine_Cube_mesh_view_0": {
            "buffer": "../../download/q0ficp4b2bob/q0ficp4b2bob",
            "byteOffset": 1344,
            "byteLength": 1344,
            "target": 34962
        },
        "Machine_Cube_mesh_view_1": {
            "buffer": "../../download/q0ficp4b2bob/q0ficp4b2bob",
            "byteOffset": 2688,
            "byteLength": 648,
            "target": 34963
        },
        "Button_Torus_mesh_view": {
            "buffer": "../../download/q0ficp4b2bob/q0ficp4b2bob",
            "byteOffset": 3336,
            "byteLength": 55296,
            "target": 34962
        },
        "Button_Torus_mesh_view_0": {
            "buffer": "../../download/q0ficp4b2bob/q0ficp4b2bob",
            "byteOffset": 58632,
            "byteLength": 55296,
            "target": 34962
        },
        "Button_Torus_mesh_view_1": {
            "buffer": "../../download/q0ficp4b2bob/q0ficp4b2bob",
            "byteOffset": 113928,
            "byteLength": 13824,
            "target": 34963
        },
        "Button.001_Cylinder.002_mesh_view": {
            "buffer": "../../download/q0ficp4b2bob/q0ficp4b2bob",
            "byteOffset": 127752,
            "byteLength": 5184,
            "target": 34962
        },
        "Button.001_Cylinder.002_mesh_view_0": {
            "buffer": "../../download/q0ficp4b2bob/q0ficp4b2bob",
            "byteOffset": 132936,
            "byteLength": 5184,
            "target": 34962
        },
        "Button.001_Cylinder.002_mesh_view_1": {
            "buffer": "../../download/q0ficp4b2bob/q0ficp4b2bob",
            "byteOffset": 138120,
            "byteLength": 2976,
            "target": 34963
        },
        "ControlStick_Cylinder.001_mesh_view": {
            "buffer": "../../download/q0ficp4b2bob/q0ficp4b2bob",
            "byteOffset": 141096,
            "byteLength": 4608,
            "target": 34962
        },
        "ControlStick_Cylinder.001_mesh_view_0": {
            "buffer": "../../download/q0ficp4b2bob/q0ficp4b2bob",
            "byteOffset": 145704,
            "byteLength": 4608,
            "target": 34962
        },
        "ControlStick_Cylinder.001_mesh_view_1": {
            "buffer": "../../download/q0ficp4b2bob/q0ficp4b2bob",
            "byteOffset": 150312,
            "byteLength": 1488,
            "target": 34963
        },
        "Sphere_Sphere.001_mesh_view": {
            "buffer": "../../download/q0ficp4b2bob/q0ficp4b2bob",
            "byteOffset": 151800,
            "byteLength": 47616,
            "target": 34962
        },
        "Sphere_Sphere.001_mesh_view_0": {
            "buffer": "../../download/q0ficp4b2bob/q0ficp4b2bob",
            "byteOffset": 199416,
            "byteLength": 47616,
            "target": 34962
        },
        "Sphere_Sphere.001_mesh_view_1": {
            "buffer": "../../download/q0ficp4b2bob/q0ficp4b2bob",
            "byteOffset": 247032,
            "byteLength": 11520,
            "target": 34963
        },
        "Sphere.001_Sphere.002_mesh_view": {
            "buffer": "../../download/q0ficp4b2bob/q0ficp4b2bob",
            "byteOffset": 258552,
            "byteLength": 47616,
            "target": 34962
        },
        "Sphere.001_Sphere.002_mesh_view_0": {
            "buffer": "../../download/q0ficp4b2bob/q0ficp4b2bob",
            "byteOffset": 306168,
            "byteLength": 47616,
            "target": 34962
        },
        "Sphere.001_Sphere.002_mesh_view_1": {
            "buffer": "../../download/q0ficp4b2bob/q0ficp4b2bob",
            "byteOffset": 353784,
            "byteLength": 11520,
            "target": 34963
        }
    },
    "materials": {
        "DefaultMaterial": {
            "values": {
                "ambient": [
                    0.0,
                    0.0,
                    0.0,
                    1.0
                ],
                "diffuse": [
                    0.6000000238418579,
                    0.6000000238418579,
                    0.6000000238418579,
                    1.0
                ],
                "specular": [
                    0.0,
                    0.0,
                    0.0,
                    1.0
                ],
                "emission": [
                    0.0,
                    0.0,
                    0.0,
                    1.0
                ],
                "shininess": 0.0
            }
        },
        "Material": {
            "values": {
                "ambient": [
                    0.0,
                    0.0,
                    0.0,
                    1.0
                ],
                "diffuse": [
                    0.6000000238418579,
                    0.6000000238418579,
                    0.6000000238418579,
                    1.0
                ],
                "specular": [
                    0.0,
                    0.0,
                    0.0,
                    1.0
                ],
                "emission": [
                    0.0,
                    0.0,
                    0.0,
                    1.0
                ],
                "shininess": 0.0
            }
        },
        "None": {
            "values": {
                "ambient": [
                    0.0,
                    0.0,
                    0.0,
                    1.0
                ],
                "diffuse": [
                    0.6000000238418579,
                    0.6000000238418579,
                    0.6000000238418579,
                    1.0
                ],
                "specular": [
                    0.0,
                    0.0,
                    0.0,
                    1.0
                ],
                "emission": [
                    0.0,
                    0.0,
                    0.0,
                    1.0
                ],
                "shininess": 0.0
            }
        }
    },
    "meshes": {
        "Machine_Cube_mesh": {
            "name": "",
            "primitives": [
                {
                    "mode": 4,
                    "material": "Material",
                    "indices": "Machine_Cube_mesh_accessor_1",
                    "attributes": {
                        "POSITION": "Machine_Cube_mesh_accessor",
                        "NORMAL": "Machine_Cube_mesh_accessor_0"
                    }
                }
            ]
        },
        "Button_Torus_mesh": {
            "name": "",
            "primitives": [
                {
                    "mode": 4,
                    "material": "None",
                    "indices": "Button_Torus_mesh_accessor_1",
                    "attributes": {
                        "POSITION": "Button_Torus_mesh_accessor",
                        "NORMAL": "Button_Torus_mesh_accessor_0"
                    }
                }
            ]
        },
        "Button.001_Cylinder.002_mesh": {
            "name": "",
            "primitives": [
                {
                    "mode": 4,
                    "material": "None",
                    "indices": "Button.001_Cylinder.002_mesh_accessor_1",
                    "attributes": {
                        "POSITION": "Button.001_Cylinder.002_mesh_accessor",
                        "NORMAL": "Button.001_Cylinder.002_mesh_accessor_0"
                    }
                }
            ]
        },
        "ControlStick_Cylinder.001_mesh": {
            "name": "",
            "primitives": [
                {
                    "mode": 4,
                    "material": "None",
                    "indices": "ControlStick_Cylinder.001_mesh_accessor_1",
                    "attributes": {
                        "POSITION": "ControlStick_Cylinder.001_mesh_accessor",
                        "NORMAL": "ControlStick_Cylinder.001_mesh_accessor_0"
                    }
                }
            ]
        },
        "Sphere_Sphere.001_mesh": {
            "name": "",
            "primitives": [
                {
                    "mode": 4,
                    "material": "None",
                    "indices": "Sphere_Sphere.001_mesh_accessor_1",
                    "attributes": {
                        "POSITION": "Sphere_Sphere.001_mesh_accessor",
                        "NORMAL": "Sphere_Sphere.001_mesh_accessor_0"
                    }
                }
            ]
        },
        "Sphere.001_Sphere.002_mesh": {
            "name": "",
            "primitives": [
                {
                    "mode": 4,
                    "material": "None",
                    "indices": "Sphere.001_Sphere.002_mesh_accessor_1",
                    "attributes": {
                        "POSITION": "Sphere.001_Sphere.002_mesh_accessor",
                        "NORMAL": "Sphere.001_Sphere.002_mesh_accessor_0"
                    }
                }
            ]
        }
    },
    "nodes": {
        "q0ficp4b2bob.obj": {
            "children": [
                "Machine_Cube",
                "Button_Torus",
                "Button.001_Cylinder.002",
                "ControlStick_Cylinder.001",
                "Sphere_Sphere.001",
                "Sphere.001_Sphere.002"
            ]
        },
        "Machine_Cube": {
            "meshes": [
                "Machine_Cube_mesh"
            ]
        },
        "Button_Torus": {
            "meshes": [
                "Button_Torus_mesh"
            ]
        },
        "Button.001_Cylinder.002": {
            "meshes": [
                "Button.001_Cylinder.002_mesh"
            ]
        },
        "ControlStick_Cylinder.001": {
            "meshes": [
                "ControlStick_Cylinder.001_mesh"
            ]
        },
        "Sphere_Sphere.001": {
            "meshes": [
                "Sphere_Sphere.001_mesh"
            ]
        },
        "Sphere.001_Sphere.002": {
            "meshes": [
                "Sphere.001_Sphere.002_mesh"
            ]
        }
    },
    "scenes": {
        "defaultScene": {
            "nodes": [
                "q0ficp4b2bob.obj"
            ]
        }
    },
    "scene": "defaultScene"
}